<?xml version="1.0" encoding="utf-8"?>
<!-- Uploaded to SVGRepo https://www.svgrepo.com -->
<svg version="1.2" baseProfile="tiny" id="Layer_1" xmlns="http://www.w3.org/2000/svg" xmlns:xlink="http://www.w3.org/1999/xlink"
	 x="0px" y="0px" viewBox="-351 153 256 256" xml:space="preserve">
<g id="Layer_1_1_">
</g>
<g id="camera">
	<path id="_x38__1_" d="M-205,321.9c-5.7,0-10.2-4.5-10.2-10.2v-92c0-5.7,4.5-10.2,10.2-10.2s10.2,4.5,10.2,10.2v92
		C-194.8,317.4-199.5,321.9-205,321.9z"/>
	<path id="_x37__1_" d="M-174.3,321.9c-5.7,0-10.2-4.5-10.2-10.2v-79.4c0-5.7,4.5-10.2,10.2-10.2s10.2,4.5,10.2,10.2v79.3
		C-164.1,317.4-168.8,321.9-174.3,321.9z"/>
	<path id="_x36__2_" d="M-108.1,245.2h10.2v84.2h-10.2c-5.7,0-10.2-4.5-10.2-10.2v-63.8C-118.3,249.9-113.6,245.2-108.1,245.2z"/>
	<circle id="_x35__2_" cx="-292.1" cy="315.5" r="12.7"/>
	<path id="_x34__9_" d="M-133.5,252.8V245c0-5.7-4.5-10.2-10.2-10.2s-10.2,4.5-10.2,10.2v87.1h-71.6V190c0-6.1-5.1-11.2-11.2-11.2
		h-100.2c-6.1,0-11.2,5.1-11.2,11.2v182c0,6.1,5.1,11.2,11.2,11.2h100.2c6.1,0,11.2-5.1,11.2-11.2v-19.4h81.8
		c5.7,0,10.2-4.5,10.2-10.2V322h10.2v-69.2H-133.5z M-292.1,351.3c-19.6,0-35.8-16.1-35.8-35.8s16.1-35.8,35.8-35.8
		c19.7,0,35.8,16.1,35.8,35.8S-272.3,351.3-292.1,351.3z M-266.3,239.7c-11.2,0-20.4-9.2-20.4-20.4c0-11.2,9.2-20.4,20.4-20.4
		c11.2,0,20.4,9.2,20.4,20.4C-245.9,230.5-255.3,239.7-266.3,239.7z"/>
	<circle id="_x33__6_" cx="-266.3" cy="219.3" r="5.1"/>
	<path id="_x32__25_" d="M-316.2,320.7c-2.9,0-5.1-2.2-5.1-5.1c0-16.1,13.3-29.4,29.4-29.4c2.9,0,5.1,2.2,5.1,5.1
		c0,2.9-2.2,5.1-5.1,5.1c-10.4,0-19.2,8.6-19.2,19.2C-311.1,318.2-313.4,320.7-316.2,320.7z"/>
	<path id="_x31__25_" d="M-253.7,221.7c-1.6,0-2.5-1-2.5-2.5c0-5.7-4.5-10.2-10.2-10.2c-1.6,0-2.5-1-2.5-2.5s1-2.5,2.5-2.5
		c8.4,0,15.3,7,15.3,15.3C-251.2,220.5-252,221.7-253.7,221.7z"/>
</g>
</svg>
