<?xml version="1.0" encoding="iso-8859-1"?>
<!-- Generator: Adobe Illustrator 19.0.0, SVG Export Plug-In . SVG Version: 6.00 Build 0)  -->
<svg version="1.1" id="Capa_1" xmlns="http://www.w3.org/2000/svg" xmlns:xlink="http://www.w3.org/1999/xlink" x="0px" y="0px"
	 viewBox="0 0 512.001 512.001" style="enable-background:new 0 0 512.001 512.001;" xml:space="preserve">
<g>
	<g>
		<path d="M416.001,372.011c-5.53,0-9.99,4.452-9.99,9.99c0,6.358,5.796,11.038,11.99,9.788c4.629-0.935,7.99-4.994,7.99-9.788
			C425.991,376.471,421.539,372.011,416.001,372.011z"/>
	</g>
</g>
<g>
	<g>
		<path d="M379.831,139.401c-5.53,0-9.99,4.455-9.99,9.99c0,5.604,4.562,10.08,10.16,9.986c5.5-0.092,9.82-4.55,9.82-9.986
			C389.821,143.861,385.366,139.401,379.831,139.401z"/>
	</g>
</g>
<g>
	<g>
		<path d="M96.001,372.011c-5.53,0-9.99,4.452-9.99,9.99c0,5.535,4.454,9.987,9.99,9.987c5.535,0,9.99-4.452,9.99-9.987
			C105.991,376.471,101.539,372.011,96.001,372.011z"/>
	</g>
</g>
<g>
	<g>
		<path d="M266.001,373.271V334.7c6.316,3.668,10,10.221,10,17.301c0,5.523,4.477,10,10,10s10-4.477,10-10
			c0-19.1-13.22-34.436-30-38.74v-11.26c0-5.523-4.477-10-10-10c-5.523,0-10,4.477-10,10v11.26c-16.781,4.304-30,19.642-30,38.74
			c0,19.1,13.22,34.436,30,38.74v38.578c-6.446-3.736-10-10.366-10-17.308c0-5.523-4.477-10-10-10s-10,4.477-10,10
			c0,19.04,13.14,34.425,30,38.743v11.247c0,5.523,4.477,10,10,10c5.523,0,10-4.477,10-10v-11.247c16.869-4.32,30-19.71,30-38.743
			C296.001,392.912,282.781,377.575,266.001,373.271z M246.001,369.302c-6.316-3.668-10-10.221-10-17.301
			c0-7.075,3.679-13.631,10-17.301V369.302z M266.001,429.318V394.71c6.317,3.667,10,10.22,10,17.3
			C276.001,418.96,272.441,425.586,266.001,429.318z"/>
	</g>
</g>
<g>
	<g>
		<path d="M502.001,252.001h-56.047l61.597-41.102c2.28-1.521,3.835-3.911,4.303-6.612c0.467-2.701-0.194-5.475-1.83-7.674
			C362.042-2.371,379.066,20.531,366.795,4.032c-3.264-4.388-9.448-5.34-13.88-2.137c-0.316,0.228-332.505,240.248-348.77,252
			c-2.673,1.931-4.144,5.017-4.144,8.106v240c0,5.523,4.477,10,10,10h492c5.523,0,10-4.477,10-10v-240
			C512.001,256.478,507.524,252.001,502.001,252.001z M492.001,272.001v38.994c-19.563-3.987-35.007-19.431-38.994-38.994H492.001z
			 M487.697,200.103l-32.008,21.358c-7.236-17.653-3.709-38.011,9.047-52.231L487.697,200.103z M356.634,23.883l23.36,31.403
			c-8.807,4.15-18.638,5.632-28.492,4.185c-10.085-1.481-19.261-5.9-26.587-12.67L356.634,23.883z M308.479,58.678
			c10.683,11.085,24.634,18.307,40.118,20.581c15.16,2.226,30.286-0.494,43.509-7.69l60.519,81.375
			c-21.085,20.92-26.634,53.019-13.808,79.776l-28.895,19.281h-51.923c-0.412-26.27-8.829-52.043-24.189-73.551
			c-20.177-28.257-50.154-46.962-84.407-52.671c-10.667-1.778-21.351-2.228-31.86-1.396L308.479,58.678z M164.093,164.496
			c23.91-17.077,53.039-23.823,82.021-18.992c28.983,4.831,54.346,20.658,71.419,44.566c12.94,18.121,20.057,39.812,20.465,61.931
			h-95.825c-31.078-41.786-34.037-45.764-34.518-46.411c7.239-0.831,14.12,2.222,18.348,7.914c3.293,4.434,9.557,5.358,13.991,2.064
			c4.433-3.293,5.357-9.557,2.064-13.991c-11.201-15.078-30.841-19.881-47.192-13.187l-6.721-9.039
			c-3.296-4.431-9.561-5.35-13.992-2.055c-4.431,3.296-5.351,9.561-2.055,13.992l6.722,9.039
			c-10.926,13.505-12.341,33.691-0.951,48.992c0.698,0.938,1.44,1.822,2.202,2.68h-62.036
			C118.631,217.18,135.412,184.974,164.093,164.496z M212.253,245.288c-6.854,0.778-13.934-1.988-18.34-7.909
			c-4.218-5.666-5.194-13.114-2.301-19.848L212.253,245.288z M108.169,203.409c-6.398,15.176-9.893,31.623-10.135,48.592H40.917
			L108.169,203.409z M20.001,271.901h38.994c-3.987,19.562-19.431,35.107-38.994,39.094V271.901z M20.001,492.001v-38.994
			c19.563,3.987,35.007,19.431,38.994,38.994H20.001z M79.276,492.001c-4.399-30.609-28.666-54.876-59.275-59.275V331.275
			c30.609-4.399,54.875-28.766,59.274-59.374h107.579c-36.611,23.168-59.775,63.059-60.631,107.577
			c-0.914,47.3,23.408,88.967,60.628,112.523H79.276z M254.074,491.963c-60.785-1.174-109.029-51.303-107.854-112.1
			c1.145-59.476,50.46-107.862,109.932-107.862c0.069,0,0.138,0,0.207,0c0.629,0,1.27,0.001,1.959,0.018
			c60.781,1.174,109.03,51.309,107.855,112.1c-1.145,59.476-50.459,107.862-109.932,107.862
			C255.542,491.983,254.839,491.982,254.074,491.963z M432.727,492H325.511c36.486-23.073,59.799-62.803,60.659-107.497
			c0.912-47.196-23.316-88.89-60.602-112.503c10.714,0.001,96.455,0.001,107.159,0.001c4.399,30.609,28.666,54.875,59.274,59.274
			v101.451C461.392,437.125,437.126,461.392,432.727,492z M492.002,492.001h-38.994c3.987-19.563,19.431-35.007,38.994-38.994
			V492.001z"/>
	</g>
</g>
<g>
</g>
<g>
</g>
<g>
</g>
<g>
</g>
<g>
</g>
<g>
</g>
<g>
</g>
<g>
</g>
<g>
</g>
<g>
</g>
<g>
</g>
<g>
</g>
<g>
</g>
<g>
</g>
<g>
</g>
</svg>
