<?xml version="1.0" encoding="iso-8859-1"?>
<!-- Generator: Adobe Illustrator 16.0.0, SVG Export Plug-In . SVG Version: 6.00 Build 0)  -->
<!DOCTYPE svg PUBLIC "-//W3C//DTD SVG 1.1//EN" "http://www.w3.org/Graphics/SVG/1.1/DTD/svg11.dtd">
<svg version="1.1" id="Capa_1" xmlns="http://www.w3.org/2000/svg" xmlns:xlink="http://www.w3.org/1999/xlink" x="0px" y="0px"
	 width="378.926px" height="378.925px" viewBox="0 0 378.926 378.925" style="enable-background:new 0 0 378.926 378.925;"
	 xml:space="preserve">
<g>
	<path d="M372.777,171.908H360.9c-8.563-33.69-39.056-58.724-75.373-58.724c-36.316,0-66.809,25.027-75.372,58.724h-39.184
		c-7.398-35.275-38.731-61.858-76.18-61.858c-37.44,0-68.782,26.574-76.177,61.858H6.148c-3.398,0-6.148,2.753-6.148,6.149
		c0,3.393,2.75,6.149,6.148,6.149h10.989c-0.061,1.228-0.189,2.441-0.189,3.696c0,42.928,34.924,77.84,77.843,77.84
		c42.925,0,77.846-34.912,77.846-77.84c0-1.249-0.129-2.462-0.177-3.696h35.569c-0.191,2.249-0.348,4.519-0.348,6.824
		c0,42.923,34.924,77.847,77.846,77.847c42.917,0,77.847-34.924,77.847-77.847c0-2.306-0.15-4.575-0.354-6.824h9.758
		c3.398,0,6.148-2.756,6.148-6.149C378.926,174.661,376.176,171.908,372.777,171.908z"/>
</g>
<g>
</g>
<g>
</g>
<g>
</g>
<g>
</g>
<g>
</g>
<g>
</g>
<g>
</g>
<g>
</g>
<g>
</g>
<g>
</g>
<g>
</g>
<g>
</g>
<g>
</g>
<g>
</g>
<g>
</g>
</svg>
