<?xml version="1.0" encoding="iso-8859-1"?>
<!-- Generator: Adobe Illustrator 19.0.0, SVG Export Plug-In . SVG Version: 6.00 Build 0)  -->
<svg version="1.1" id="Layer_1" xmlns="http://www.w3.org/2000/svg" xmlns:xlink="http://www.w3.org/1999/xlink" x="0px" y="0px"
	 viewBox="0 0 512 512" style="enable-background:new 0 0 512 512;" xml:space="preserve">
<g>
	<g>
		<path d="M406.804,39.264H105.196C47.191,39.264,0,86.454,0,144.46v225.235c0,30.509,21.876,55.996,50.765,61.634v28.498
			c0,7.128,5.779,12.907,12.907,12.907s12.907-5.78,12.907-12.907v-27.325h358.84v27.325c0,7.128,5.779,12.907,12.907,12.907
			c7.129,0,12.907-5.78,12.907-12.907v-28.496C490.124,425.698,512,400.209,512,369.695V144.46
			C512,86.454,464.809,39.264,406.804,39.264z M486.185,369.695c0,20.399-16.595,36.993-36.993,36.993h-0.865H63.672h-0.852
			c-20.405,0-37.006-16.594-37.006-36.993V144.46c0-43.771,35.61-79.381,79.381-79.381h301.608c43.771,0,79.381,35.61,79.381,79.381
			V369.695z"/>
	</g>
</g>
<g>
	<g>
		<path d="M396.885,93.756c-1.632-0.746-3.44-1.172-5.35-1.172c-0.802,0-1.581,0.083-2.343,0.222
			c-1.937-0.142-3.889-0.222-5.841-0.222h-254.69c-1.719,0-3.451,0.076-5.181,0.191c-0.697-0.116-1.408-0.191-2.138-0.191
			c-1.726,0-3.369,0.345-4.874,0.959c-37.695,5.904-65.704,38.378-65.704,76.926v173.205c0,19.579,15.929,35.508,35.508,35.508
			h339.453c19.579,0,35.508-15.929,35.508-35.508V170.469C461.235,132.566,433.831,100.238,396.885,93.756z M350.399,118.4h28.229
			v122.221h-28.229V118.4z M296.368,118.4h28.216v122.221h-28.216V118.4z M242.325,118.4h28.229v122.221h-28.229V118.4z
			 M188.281,118.4h28.229v122.221h-28.229V118.4z M134.25,118.4h28.216v122.221H134.25V118.4z M76.58,170.469
			c0-21.455,12.972-40.091,31.856-48.009v118.161H76.58V170.469z M435.42,343.674c0,5.344-4.349,9.694-9.694,9.694H86.273
			c-5.345,0-9.694-4.349-9.694-9.694v-77.238h358.84V343.674z M435.42,240.621h-30.978V122.849
			c18.378,8.157,30.978,26.601,30.978,47.619V240.621z"/>
	</g>
</g>
<g>
	<g>
		<path d="M121.343,272.025c-21.273,0-38.58,17.301-38.58,38.567c0,21.266,17.306,38.568,38.58,38.568
			c21.266,0,38.568-17.301,38.568-38.568C159.91,289.326,142.609,272.025,121.343,272.025z M121.343,323.345
			c-7.038,0-12.765-5.721-12.765-12.753s5.727-12.753,12.765-12.753c7.032,0,12.753,5.721,12.753,12.753
			S128.375,323.345,121.343,323.345z"/>
	</g>
</g>
<g>
	<g>
		<path d="M391.535,272.025c-21.266,0-38.567,17.301-38.567,38.567c0,21.266,17.301,38.568,38.567,38.568
			c21.266,0,38.568-17.301,38.568-38.568C430.102,289.326,412.8,272.025,391.535,272.025z M391.535,323.345
			c-7.032,0-12.753-5.721-12.753-12.753s5.721-12.753,12.753-12.753c7.032,0,12.753,5.721,12.753,12.753
			S398.567,323.345,391.535,323.345z"/>
	</g>
</g>
<g>
	<g>
		<path d="M313.664,296.988h-44.75v-8.829c0-7.128-5.779-12.907-12.907-12.907s-12.907,5.78-12.907,12.907v8.829h-44.75
			c-7.129,0-12.907,5.78-12.907,12.907s5.779,12.907,12.907,12.907h44.75v8.843c0,7.128,5.779,12.907,12.907,12.907
			s12.907-5.78,12.907-12.907v-8.843h44.75c7.129,0,12.907-5.78,12.907-12.907S320.793,296.988,313.664,296.988z"/>
	</g>
</g>
<g>
</g>
<g>
</g>
<g>
</g>
<g>
</g>
<g>
</g>
<g>
</g>
<g>
</g>
<g>
</g>
<g>
</g>
<g>
</g>
<g>
</g>
<g>
</g>
<g>
</g>
<g>
</g>
<g>
</g>
</svg>
