<?xml version="1.0" encoding="iso-8859-1"?>
<!-- Generator: Adobe Illustrator 19.0.0, SVG Export Plug-In . SVG Version: 6.00 Build 0)  -->
<svg version="1.1" id="Layer_1" xmlns="http://www.w3.org/2000/svg" xmlns:xlink="http://www.w3.org/1999/xlink" x="0px" y="0px"
	 viewBox="0 0 512 512" style="enable-background:new 0 0 512 512;" xml:space="preserve">
<g>
	<g>
		<path d="M304.71,282.144c-3.486-6.343-11.453-8.675-17.796-5.19c-6.343,3.486-8.662,11.44-5.189,17.796
			c3.486,6.343,11.453,8.662,17.796,5.189C305.863,296.454,308.183,288.486,304.71,282.144z"/>
	</g>
</g>
<g>
	<g>
		<path d="M281.331,133.681c-6.945-2.018-14.219,1.966-16.25,8.911c-2.018,6.945,1.966,14.232,8.911,16.25
			c6.959,2.031,14.232-1.966,16.25-8.911C292.274,142.985,288.29,135.712,281.331,133.681z"/>
	</g>
</g>
<g>
	<g>
		<path d="M274.124,296.965c-0.472-7.221-6.71-12.698-13.93-12.227c-7.221,0.472-12.698,6.71-12.227,13.93
			c0.472,7.221,6.71,12.698,13.93,12.227C269.131,310.424,274.596,304.186,274.124,296.965z"/>
	</g>
</g>
<g>
	<g>
		<path d="M257.179,142.068c-1.101-7.142-7.784-12.056-14.939-10.956s-12.056,7.797-10.956,14.952
			c1.101,7.142,7.784,12.056,14.939,10.956C253.379,155.919,258.28,149.223,257.179,142.068z"/>
	</g>
</g>
<g>
	<g>
		<path d="M232.687,280.506c-6.749-2.634-14.35,0.708-16.971,7.457c-2.621,6.749,0.721,14.336,7.47,16.971
			c6.736,2.621,14.337-0.721,16.957-7.47C242.764,290.714,239.423,283.127,232.687,280.506z"/>
	</g>
</g>
<g>
	<g>
		<path d="M223.893,148.922c-4.023-6.015-12.161-7.627-18.176-3.617c-6.015,4.023-7.64,12.161-3.617,18.176
			c4.023,6.028,12.161,7.64,18.176,3.617C226.292,163.088,227.917,154.95,223.893,148.922z"/>
	</g>
</g>
<g>
	<g>
		<circle cx="200.082" cy="274.098" r="13.105"/>
	</g>
</g>
<g>
	<g>
		<path d="M196.623,169.208c-6.185-3.761-14.245-1.782-18.006,4.403c-3.748,6.185-1.782,14.245,4.403,18.006
			c6.198,3.748,14.258,1.782,18.006-4.403C204.787,181.015,202.808,172.956,196.623,169.208z"/>
	</g>
</g>
<g>
	<g>
		<path d="M195.103,241.231c-2.32-6.854-9.763-10.523-16.617-8.19c-6.854,2.32-10.523,9.763-8.204,16.617
			c2.333,6.854,9.763,10.523,16.617,8.203C193.753,255.528,197.435,248.085,195.103,241.231z"/>
	</g>
</g>
<g>
	<g>
		<circle cx="179.049" cy="212.139" r="13.105"/>
	</g>
</g>
<g>
	<g>
		<path d="M386.392,376.052h-4.259c-7.238,0-13.105,5.868-13.105,13.105c0,7.236,5.867,13.105,13.105,13.105h4.259
			c7.238,0,13.105-5.868,13.105-13.105C399.496,381.92,393.629,376.052,386.392,376.052z"/>
	</g>
</g>
<g>
	<g>
		<path d="M511.963,388.427c-0.004-0.077-0.007-0.156-0.012-0.233c-0.028-0.368-0.071-0.73-0.128-1.089
			c-0.008-0.051-0.014-0.102-0.024-0.153c-0.065-0.384-0.148-0.76-0.246-1.132c-0.007-0.026-0.013-0.054-0.021-0.08
			c-0.105-0.385-0.225-0.763-0.363-1.132c-0.008-0.021-0.014-0.041-0.022-0.062c-0.138-0.364-0.291-0.721-0.46-1.069
			c-0.017-0.037-0.035-0.073-0.052-0.11c-0.16-0.324-0.333-0.638-0.518-0.945c-0.041-0.067-0.081-0.134-0.122-0.201
			c-0.169-0.27-0.349-0.532-0.536-0.789c-0.073-0.101-0.147-0.199-0.223-0.297c-0.168-0.216-0.343-0.426-0.524-0.63
			c-0.11-0.125-0.221-0.248-0.336-0.37c-0.165-0.173-0.334-0.339-0.507-0.503c-0.142-0.134-0.284-0.265-0.431-0.392
			c-0.169-0.145-0.343-0.286-0.52-0.423c-0.159-0.123-0.317-0.244-0.481-0.359c-0.191-0.135-0.387-0.262-0.586-0.387
			c-0.157-0.098-0.313-0.197-0.474-0.288c-0.229-0.131-0.465-0.252-0.704-0.37c-0.142-0.069-0.28-0.14-0.425-0.204
			c-0.273-0.122-0.55-0.231-0.832-0.334c-0.089-0.033-0.172-0.075-0.262-0.106c-1.084-0.373-108.429-38.741-111.588-159.071
			c-0.05-1.836-0.075-3.686-0.075-5.558c0-1.32-0.199-2.593-0.563-3.795c-0.037-0.396-0.064-0.793-0.104-1.189l61.69,5.828
			c1.356,0.13,2.706,0.193,4.052,0.191c10.725,0,21.019-4.049,29.345-11.625c10.6-9.642,16.68-23.858,16.68-39v-11.548
			c0-0.008,0-0.014,0-0.022V110.8c0-26.424-26.804-48.933-77.513-65.091C379.725,31.259,319.678,23.3,256,23.3
			c-63.68,0-123.728,7.958-169.084,22.41C36.202,61.867,9.396,84.376,9.396,110.8v40.18c0,0.008,0,0.014,0,0.022v11.548
			c0,15.141,6.079,29.356,16.681,39c8.327,7.576,18.619,11.626,29.343,11.626c1.345,0,2.696-0.064,4.051-0.191l61.705-5.829
			c-0.039,0.385-0.069,0.771-0.105,1.156c-0.37,1.211-0.571,2.495-0.571,3.828c0,2.136-0.028,4.053-0.086,5.912
			c-1.396,50.007-20.384,91.802-56.437,124.222C36.6,366.888,9.083,376.681,8.835,376.767c-0.096,0.033-0.185,0.077-0.279,0.113
			c-0.271,0.101-0.54,0.204-0.802,0.322c-0.159,0.071-0.312,0.148-0.466,0.225c-0.22,0.11-0.439,0.221-0.653,0.342
			c-0.185,0.105-0.363,0.216-0.541,0.329c-0.172,0.109-0.341,0.218-0.507,0.334c-0.197,0.138-0.385,0.282-0.573,0.429
			c-0.14,0.11-0.279,0.221-0.414,0.337c-0.189,0.161-0.37,0.328-0.548,0.498c-0.127,0.122-0.253,0.245-0.375,0.372
			c-0.165,0.172-0.324,0.347-0.478,0.527c-0.126,0.145-0.249,0.292-0.368,0.443c-0.134,0.169-0.261,0.341-0.385,0.516
			c-0.127,0.177-0.249,0.356-0.367,0.54c-0.102,0.159-0.199,0.321-0.294,0.484c-0.122,0.208-0.237,0.419-0.347,0.634
			c-0.079,0.153-0.151,0.308-0.223,0.464c-0.105,0.228-0.206,0.459-0.297,0.693c-0.063,0.161-0.121,0.324-0.178,0.486
			c-0.08,0.229-0.156,0.46-0.223,0.696c-0.055,0.19-0.101,0.381-0.147,0.573c-0.05,0.21-0.098,0.421-0.138,0.634
			c-0.045,0.235-0.077,0.472-0.109,0.709c-0.024,0.178-0.047,0.355-0.063,0.535c-0.025,0.278-0.035,0.558-0.042,0.839
			C0.013,388.946,0,389.051,0,389.157v59.337C0,470.663,18.036,488.7,40.205,488.7h431.59c22.169,0,40.205-18.037,40.205-40.206
			v-59.337C512,388.91,511.976,388.67,511.963,388.427z M468.274,182.164c-2.718,2.473-7.231,5.302-13.292,4.727l-69.646-6.58
			c-2.938-9.412-6.889-18.474-11.773-27.009l102.797,9.718C476.241,170.614,473.321,177.572,468.274,182.164z M35.605,110.8
			c0-9.794,15.522-26.179,59.267-40.117C137.725,57.029,194.948,49.51,256,49.51c61.051,0,118.271,7.519,161.121,21.173
			c43.741,13.937,59.261,30.322,59.261,40.117v25.895L351.92,124.928c-16.031-16.117-35.979-27.971-58.008-34.401
			c-48.005-14.004-98.803-0.814-133.857,34.398l-124.45,11.768V110.8z M313.24,262.368l35.054,16.711
			c-25.694,40.862-75.356,60.238-122.876,46.395c-47.22-13.777-79.581-57.7-78.696-106.812c0.139-7.751,1.126-15.529,2.943-23.165
			c0.447-1.909,0.919-3.705,1.447-5.503c4.791-16.424,13.05-31.053,24.556-43.492c21.105-22.865,50.066-35.248,80.033-35.248
			c10.265,0,20.648,1.452,30.872,4.436c19.116,5.58,36.283,16.201,49.661,30.737c12.767,13.82,21.8,30.797,26.124,49.101
			c1.776,7.504,2.752,15.167,2.9,22.781c0,0.004,0,0.008,0,0.012c0.227,11.073-1.242,22.121-4.364,32.825
			c-0.419,1.434-0.866,2.855-1.341,4.267l-35.035-16.702c-6.533-3.112-14.354-0.345-17.469,6.191
			C303.936,251.433,306.706,259.254,313.24,262.368z M57.001,186.892c-6.062,0.56-10.57-2.255-13.288-4.728
			c-5.048-4.592-7.968-11.552-8.086-19.143l102.738-9.714c-4.838,8.472-8.743,17.493-11.697,27.005L57.001,186.892z
			 M485.791,448.495c0,7.719-6.278,13.997-13.996,13.997H40.205c-7.717,0-13.996-6.278-13.996-13.997v-46.233h316.609
			c7.238,0,13.105-5.868,13.105-13.105c0-7.236-5.867-13.105-13.105-13.105H63.8c5.484-3.976,11.159-8.468,16.851-13.533
			c19.408-17.264,41.488-43.555,54.569-80.669c16.585,32.564,46.081,58.051,82.858,68.78c12.411,3.617,25.181,5.411,37.918,5.411
			c19.172,0,38.271-4.066,55.962-12.1c28.1-12.761,50.989-34.746,64.817-62.07c13.064,37.057,35.092,63.311,54.47,80.568
			c5.723,5.098,11.429,9.617,16.942,13.615h-22.482c-7.238,0-13.105,5.868-13.105,13.105c0,7.236,5.867,13.105,13.105,13.105h60.085
			V448.495z"/>
	</g>
</g>
<g>
	<g>
		<path d="M256,180.413c-22.147,0-40.166,18.018-40.166,40.165c0,22.147,18.019,40.166,40.166,40.166s40.166-18.019,40.166-40.166
			C296.166,198.431,278.147,180.413,256,180.413z M256,234.533c-7.696,0-13.956-6.26-13.956-13.956
			c0-7.694,6.261-13.955,13.956-13.955c7.696,0,13.956,6.26,13.956,13.955C269.956,228.273,263.696,234.533,256,234.533z"/>
	</g>
</g>
<g>
</g>
<g>
</g>
<g>
</g>
<g>
</g>
<g>
</g>
<g>
</g>
<g>
</g>
<g>
</g>
<g>
</g>
<g>
</g>
<g>
</g>
<g>
</g>
<g>
</g>
<g>
</g>
<g>
</g>
</svg>
